<?xml version="1.0" standalone="no"?>
<!DOCTYPE svg PUBLIC "-//W3C//DTD SVG 20010904//EN"
 "http://www.w3.org/TR/2001/REC-SVG-20010904/DTD/svg10.dtd">
<svg version="1.0" xmlns="http://www.w3.org/2000/svg"
 width="178.000000pt" height="209.000000pt" viewBox="0 0 178.000000 209.000000"
 preserveAspectRatio="xMidYMid meet">

<g transform="translate(0.000000,209.000000) scale(0.100000,-0.100000)"
fill="#000000" stroke="none">
<path d="M1427 1188 c-20 -23 -37 -47 -37 -54 0 -6 -7 -17 -15 -24 -8 -6 -13
-15 -12 -18 1 -4 -2 -8 -8 -10 -32 -10 -55 -47 -55 -88 0 -82 -34 -114 -121
-114 -21 0 -45 -7 -53 -16 -9 -9 -16 -11 -16 -4 0 6 -4 8 -10 5 -5 -3 -10 -15
-10 -26 0 -18 -10 -23 -36 -20 -7 1 -14 -6 -18 -14 -3 -9 -10 -13 -16 -10 -14
9 -79 -24 -91 -47 -5 -10 -14 -16 -20 -13 -5 4 -9 2 -9 -4 0 -6 -12 -8 -30 -4
-18 3 -30 1 -30 -5 0 -18 22 -25 31 -11 5 8 9 9 9 3 0 -20 28 -24 66 -8 49 21
94 55 94 72 0 19 40 6 63 -20 23 -27 22 -41 -8 -77 -40 -46 -118 -80 -206 -87
-63 -6 -80 -4 -103 11 -20 14 -30 15 -39 6 -13 -13 -18 -61 -5 -61 19 0 6 -20
-17 -26 -14 -3 -25 -10 -25 -15 0 -5 -9 -9 -20 -9 -11 0 -20 -7 -20 -15 0 -9
-10 -20 -22 -25 -13 -5 -21 -9 -18 -10 28 -8 109 -12 364 -16 220 -4 311 -2
343 7 65 18 137 87 164 157 21 55 21 66 14 322 -4 146 -7 275 -8 288 -3 34
-30 27 -70 -20z"/>
<path d="M1600 970 c0 -229 1 -231 55 -188 42 33 55 76 55 182 0 115 -17 166
-65 196 -18 11 -35 20 -39 20 -3 0 -6 -94 -6 -210z"/>
</g>
</svg>
